:version 1.10
:name ASF
:units
  mass 1
  length 1
  angle deg
:documentation
  ASF file generated by Kaydara
:root
  axis xyz
  order  tx ty tz rx ry rz
  position 0 0 0
  orientation 0 0 0
:bonedata
  begin
    id 1
    name SpineDummy
    direction 0.999998 -0.00179978 1.38929e-006
    length 3.60008
    axis 0 0 0 xyz
  end
  begin
    id 2
    name Spine
    direction 0.964365 0.262802 0.0305839
    length 8.13928
    axis 1.33928 -1.75354 15.2838 xyz
    dof rx ry rz
  end
  begin
    id 3
    name Spine1
    direction 0.811168 0.572065 0.12144
    length 7.14954
    axis 2.2224 -6.9761 35.2157 xyz
    dof rx ry rz
  end
  begin
    id 4
    name Neck
    direction 0 0 0
    length 0
    axis 2.2224 -6.9761 35.2157 xyz
    dof rx ry rz
  end
  begin
    id 5
    name HeadDummy
    direction 0.810939 0.572387 0.121455
    length 3.55534
    axis 2.2224 -6.9761 35.2157 xyz
  end
  begin
    id 6
    name Head
    direction 0.998226 -0.000232542 0.0595419
    length 7.35666
    axis -3.03688 -3.41352 -0.0133467 xyz
    dof rx ry rz
  end
  begin
    id 7
    name R_ClavicleDummy
    direction 0.531669 -0.194489 -0.824319
    length 2.49392
    axis 2.2224 -6.9761 35.2157 xyz
  end
  begin
    id 8
    name R_Clavicle
    direction -0.155119 0.0480802 -0.986725
    length 4.485
    axis -54.2764 80.6538 162.779 xyz
    dof rx ry rz
  end
  begin
    id 9
    name R_UpperArm
    direction -0.955567 0.200068 -0.216484
    length 10.1122
    axis -72.9943 12.5026 168.175 xyz
    dof rx ry rz
  end
  begin
    id 10
    name R_Forearm
    direction -0.61433 0.385743 0.688332
    length 9.39148
    axis -117.015 -43.4982 147.875 xyz
    dof rx ry rz
  end
  begin
    id 11
    name R_Hand
    direction -0.699429 0.0170333 0.714499
    length 3.66324
    axis -45.0303 -36.7097 175.478 xyz
    dof rx ry rz
  end
  begin
    id 12
    name L_ClavicleDummy
    direction 0.40287 -0.36502 0.839319
    length 2.49392
    axis 2.2224 -6.9761 35.2157 xyz
  end
  begin
    id 13
    name L_Clavicle
    direction -0.231271 -0.0726419 0.970174
    length 4.485
    axis 18.4357 -75.9711 -162.563 xyz
    dof rx ry rz
  end
  begin
    id 14
    name L_UpperArm
    direction -0.917494 0.144359 0.370629
    length 10.1122
    axis 56.0417 -21.7544 171.058 xyz
    dof rx ry rz
  end
  begin
    id 15
    name L_Forearm
    direction -0.496786 0.615074 -0.612281
    length 9.39148
    axis 89.8094 37.7546 128.927 xyz
    dof rx ry rz
  end
  begin
    id 16
    name L_Hand
    direction -0.409932 0.64962 -0.640274
    length 3.66324
    axis -0.424369 32.133 128.52 xyz
    dof rx ry rz
  end
  begin
    id 17
    name L_ThighDummy
    direction -1.84081e-006 1.87549e-006 1
    length 3.13049
    axis 0 0 0 xyz
  end
  begin
    id 18
    name L_Thigh
    direction -0.947739 0.307978 0.083308
    length 17.9961
    axis 173.219 -4.77873 161.998 xyz
    dof rx ry rz
  end
  begin
    id 19
    name L_Calf
    direction -0.728814 -0.684427 0.0197583
    length 13.3367
    axis 167.331 -1.13214 -136.799 xyz
    dof rx ry rz
  end
  begin
    id 20
    name L_Foot
    direction -0.9028 0.418719 0.0981191
    length 5.8674
    axis 163.436 11.5135 -155.37 xyz
    dof rx ry rz
  end
  begin
    id 21
    name L_Toe0
    direction -0.35341 0.886259 0.299411
    length 4.75286
    axis 169.316 -17.4222 111.74 xyz
    dof rx ry rz
  end
  begin
    id 22
    name R_ThighDummy
    direction 9.32778e-007 -8.82053e-007 -1
    length 3.13049
    axis 0 0 0 xyz
  end
  begin
    id 23
    name R_Thigh
    direction -0.925064 0.37528 -0.0585023
    length 17.9961
    axis -178.698 3.35385 157.919 xyz
    dof rx ry rz
  end
  begin
    id 24
    name R_Calf
    direction -0.68969 -0.718776 -0.0876886
    length 13.3367
    axis -160.504 5.03065 -133.817 xyz
    dof rx ry rz
  end
  begin
    id 25
    name R_Foot
    direction -0.857405 0.418858 -0.299022
    length 5.8674
    axis -161.328 4.38911 -154.413 xyz
    dof rx ry rz
  end
  begin
    id 26
    name R_Toe0
    direction -0.100745 0.952789 -0.286433
    length 4.75286
    axis 171.683 16.6445 96.0359 xyz
    dof rx ry rz
  end
:hierarchy
  begin
    root SpineDummy L_ThighDummy R_ThighDummy
    SpineDummy Spine
    Spine Spine1
    Spine1 Neck
    Neck HeadDummy R_ClavicleDummy L_ClavicleDummy
    HeadDummy Head
    R_ClavicleDummy R_Clavicle
    R_Clavicle R_UpperArm
    R_UpperArm R_Forearm
    R_Forearm R_Hand
    L_ClavicleDummy L_Clavicle
    L_Clavicle L_UpperArm
    L_UpperArm L_Forearm
    L_Forearm L_Hand
    L_ThighDummy L_Thigh
    L_Thigh L_Calf
    L_Calf L_Foot
    L_Foot L_Toe0
    R_ThighDummy R_Thigh
    R_Thigh R_Calf
    R_Calf R_Foot
    R_Foot R_Toe0
  end

:SAMPLES-PER-SECOND 30
:FULLY-SPECIFIED
:DEGREES
285
root  16.8688 28.8955 33.0312 -135.533 -8.3746 86.1823
Spine  2.62001 3.95242 2.20393
Spine1  3.37294 -19.9131 -8.67471
Neck  3.97569e-016 0 -2.38542e-015
Head  34.1089 7.71326 1.66094
R_Clavicle  0.502704 -5.74404 2.69678
R_UpperArm  33.3438 27.929 27.0893
R_Forearm  29.512 -16.6832 14.3907
R_Hand  -1.19739 5.74735 -20.3257
L_Clavicle  -0.60041 19.3468 -1.59773
L_UpperArm  -28.502 6.03854 32.8606
L_Forearm  5.73179 36.5486 44.6982
L_Hand  -0.845715 4.71616 -9.20397
L_Thigh  -13.0864 -21.6575 17.6176
L_Calf  10.5976 -0.596805 4.76658
L_Foot  6.58811 22.3165 2.95772
L_Toe0  0.505537 0.0344782 -6.13975
R_Thigh  21.2322 -0.992997 -0.731682
R_Calf  8.1449 -7.70044 -24.7667
R_Foot  -0.183098 -0.989096 -0.788879
R_Toe0  2.21943 -0.378075 -15.0327
286
root  16.0397 28.025 31.6944 -147.214 -11.6812 86.5366
Spine  3.38253 4.48398 3.25535
Spine1  4.01655 -23.3957 -7.8524
Neck  3.97569e-016 0 -2.38542e-015
Head  41.4275 8.81435 1.07484
R_Clavicle  0.65047 -3.987 3.55658
R_UpperArm  34.5249 35.4136 23.0044
R_Forearm  27.2376 -13.2704 11.2736
R_Hand  -1.13252 5.86349 -19.7493
L_Clavicle  -0.617936 20.1075 -1.16942
L_UpperArm  -28.6293 4.50211 37.2473
L_Forearm  5.57711 38.5687 48.2026
L_Hand  -0.650571 3.62833 -7.93936
L_Thigh  -20.4494 -22.4721 19.1154
L_Calf  2.43859 -0.202296 1.73046
L_Foot  10.2555 27.4113 8.28126
L_Toe0  0.501479 0.034135 -6.10083
R_Thigh  23.6721 -2.96254 -4.24584
R_Calf  10.3199 -9.11653 -29.8058
R_Foot  -0.227782 0.112349 2.25606
R_Toe0  -2.21512 -0.25669 -17.569
287
root  15.3545 27.5154 30.4551 -157.679 -13.1985 87.6563
Spine  4.20258 5.68939 3.63699
Spine1  4.42191 -26.2973 -6.5582
Neck  3.97569e-016 0 -2.38542e-015
Head  47.2446 9.85536 0.0523341
R_Clavicle  0.833142 -2.50058 4.49155
R_UpperArm  38.5086 37.7945 18.7684
R_Forearm  23.8163 -8.61189 7.2006
R_Hand  -0.993777 5.82761 -18.4865
L_Clavicle  -0.595884 20.0847 -0.607739
L_UpperArm  -28.3122 3.2169 38.4432
L_Forearm  9.00891 40.8075 52.4015
L_Hand  -0.401174 1.9134 -6.00664
L_Thigh  -24.5949 -22.3906 21.7732
L_Calf  -5.55219 0.0952332 -0.461425
L_Foot  10.2754 24.7062 10.1884
L_Toe0  0.491051 0.0332554 -6.00108
R_Thigh  23.9522 -4.03828 -7.78984
R_Calf  9.33978 -9.20714 -30.1361
R_Foot  -0.304526 0.842117 5.05089
R_Toe0  -1.45842 -0.28774 -17.4858
288
root  14.7236 27.6251 29.5115 -168.684 -12.1627 89.3402
Spine  5.88145 7.20311 4.19325
Spine1  5.81036 -27.8604 -6.56477
Neck  3.97569e-016 0 -2.38542e-015
Head  51.7 10.3022 0.264796
R_Clavicle  0.86768 -2.57852 4.70231
R_UpperArm  42.0492 34.9721 15.8
R_Forearm  22.4475 -3.23562 2.66159
R_Hand  -0.923254 5.99168 -17.8918
L_Clavicle  -0.55869 19.6387 0.0332973
L_UpperArm  -29.0738 3.81105 37.4123
L_Forearm  10.8206 41.5002 55.4856
L_Hand  -0.249648 1.09492 -4.17175
L_Thigh  -25.7401 -19.8151 23.3931
L_Calf  -15.3441 -0.116257 1.03427
L_Foot  8.90575 21.8163 9.089
L_Toe0  0.506166 0.0345418 -6.14697
R_Thigh  20.5287 -2.83645 -10.517
R_Calf  3.62859 -7.79447 -25.0899
R_Foot  0.299262 2.72263 5.41526
R_Toe0  -0.513502 -0.154584 -13.73
289
root  13.8311 28.3619 28.9003 -179.934 -8.89404 90.5721
Spine  7.91501 8.25839 5.0801
Spine1  7.91396 -27.3554 -8.00761
Neck  3.97569e-016 0 -2.38542e-015
Head  55.2424 9.80163 1.94558
R_Clavicle  0.651827 -4.8428 3.6367
R_UpperArm  41.9894 29.5233 14.4307
R_Forearm  24.5932 0.265593 -0.252404
R_Hand  -1.02014 6.27235 -18.804
L_Clavicle  -0.522546 19.1308 0.766687
L_UpperArm  -31.1579 6.14542 35.3856
L_Forearm  6.41317 39.9041 56.0426
L_Hand  -0.219351 1.47615 -3.46816
L_Thigh  -24.4103 -14.8522 23.5869
L_Calf  -22.5636 -0.838392 6.29444
L_Foot  6.92822 21.5154 4.51472
L_Toe0  0.539509 0.0340488 -6.15564
R_Thigh  15.1211 0.651624 -12.0353
R_Calf  -0.886053 -5.06175 -15.9284
R_Foot  0.935475 4.72547 6.12385
R_Toe0  -2.10819 0.639516 -0.00767386
290
root  12.5854 29.3647 28.4581 170.874 -5.26804 90.0106
Spine  8.83824 7.82359 5.16318
Spine1  9.12584 -24.5748 -9.26905
Neck  3.97569e-016 0 -2.38542e-015
Head  58.0216 8.8886 3.457
R_Clavicle  0.365765 -7.63227 1.71818
R_UpperArm  39.7138 23.6573 14.7988
R_Forearm  26.994 -0.207905 0.141581
R_Hand  -1.20162 6.51514 -20.4042
L_Clavicle  -0.484934 18.1979 1.58077
L_UpperArm  -34.1414 8.23866 32.6525
L_Forearm  -1.31057 37.0644 54.5175
L_Hand  -0.29087 2.90801 -3.79225
L_Thigh  -17.0045 -11.1831 24.0448
L_Calf  -22.9783 -1.75708 13.1334
L_Foot  4.84535 25.912 -3.38234
L_Toe0  0.253305 0.0344573 -5.99296
R_Thigh  10.4867 4.58952 -12.019
R_Calf  -2.67432 -1.94838 -6.05299
R_Foot  0.62476 4.33511 8.3316
R_Toe0  -3.32413 1.51984 4.71605
291
root  11.2775 30.1335 27.9942 165.04 -2.83053 88.5729
Spine  8.23854 6.54592 4.30504
Spine1  8.53979 -20.78 -8.81401
Neck  3.97569e-016 0 -2.38542e-015
Head  59.9763 8.22092 3.68707
R_Clavicle  0.182047 -9.76377 0.015715
R_UpperArm  37.3648 19.0915 16.7182
R_Forearm  26.3592 -4.39164 3.62918
R_Hand  -1.33002 7.07429 -21.4846
L_Clavicle  -0.459744 16.6933 2.07447
L_UpperArm  -37.1205 7.54709 29.6726
L_Forearm  -6.62971 34.2998 51.9217
L_Hand  -0.393533 4.53608 -4.2816
L_Thigh  -1.97574 -10.1908 24.8566
L_Calf  -16.0633 -2.08697 15.5301
L_Foot  0.80814 24.5344 -12.6764
L_Toe0  -1.75496 0.0850931 -4.84982
R_Thigh  7.97709 6.97734 -10.5746
R_Calf  -4.01203 0.242782 0.751913
R_Foot  -0.0682368 2.84218 9.8792
R_Toe0  -4.34365 1.76024 3.36096
292
root  10.0914 30.3927 27.3269 161.776 -1.4894 88.2589
Spine  7.12271 6.37891 4.34417
Spine1  6.91319 -18.2427 -6.86333
Neck  3.97569e-016 0 -2.38542e-015
Head  61.2201 7.61632 3.41506
R_Clavicle  0.148622 -11.666 -0.704866
R_UpperArm  35.4816 16.5757 20.1721
R_Forearm  22.6757 -10.4754 8.81021
R_Hand  -1.43096 7.81827 -22.2536
L_Clavicle  -0.444776 15.3911 1.86488
L_UpperArm  -39.5528 2.72227 27.427
L_Forearm  -8.0706 32.0295 48.8064
L_Hand  -0.486739 5.03395 -5.05875
L_Thigh  7.77073 -10.6959 25.2947
L_Calf  -9.27582 -1.14946 8.15764
L_Foot  0.388132 20.0002 -12.1068
L_Toe0  -2.97999 0.171838 -4.15056
R_Thigh  7.35102 7.18304 -8.4409
R_Calf  -4.69624 0.898745 2.79955
R_Foot  -0.781815 1.05134 10.0762
R_Toe0  -2.98862 1.17606 3.13017
293
root  8.95681 30.1004 26.4213 159.515 -0.522464 89.139
Spine  6.53764 8.19797 6.32831
Spine1  5.53443 -17.8243 -5.26121
Neck  3.97569e-016 0 -2.38542e-015
Head  62.2288 6.74467 3.69072
R_Clavicle  0.201888 -13.2806 -0.546126
R_UpperArm  33.7818 14.9905 25.6503
R_Forearm  19.3336 -17.0034 14.844
R_Hand  -1.6038 8.48365 -23.4964
L_Clavicle  -0.43771 14.9557 1.6798
L_UpperArm  -41.7623 -5.38869 25.5525
L_Forearm  -7.27236 30.1919 45.4531
L_Hand  -0.594526 4.18098 -6.77105
L_Thigh  5.97757 -12.24 26.3266
L_Calf  -8.82809 1.43815 -10.9155
L_Foot  2.94138 17.9463 -3.96862
L_Toe0  0.796399 0.0232096 -6.30203
R_Thigh  8.0222 6.2262 -6.15505
R_Calf  -3.74581 0.428838 1.37259
R_Foot  -2.21009 -1.73886 12.5193
R_Toe0  1.1711 -0.260187 2.01665
294
root  7.86157 29.3211 25.4975 157.171 1.18802 88.8931
Spine  7.38631 12.0138 8.85119
Spine1  5.25748 -18.245 -5.54113
Neck  3.97569e-016 0 -2.38542e-015
Head  63.4346 6.03146 4.12915
R_Clavicle  0.240356 -14.0499 -0.279101
R_UpperArm  34.8942 13.0106 33.6917
R_Forearm  17.6656 -24.6533 20.8669
R_Hand  -1.79881 9.12669 -24.7949
L_Clavicle  -0.445988 14.7544 2.69762
L_UpperArm  -44.1044 -14.2034 21.9981
L_Forearm  -5.26073 28.7482 41.9485
L_Hand  -0.673714 3.09496 -8.73141
L_Thigh  1.85751 -13.5247 25.925
L_Calf  -11.7031 4.31403 -33.6474
L_Foot  4.00622 14.4891 1.47377
L_Toe0  0.505156 0.034446 -6.1361
R_Thigh  9.95847 6.46137 -3.0633
R_Calf  -2.26172 -0.616825 -1.76204
R_Foot  -3.51975 -2.15256 20.1958
R_Toe0  3.13392 -0.72222 -8.84657
